<svg id="Layer_1" data-name="Layer 1" xmlns="http://www.w3.org/2000/svg" viewBox="0 0 960.1582 577.2316"><path d="M939.76,228.0421C834.3259,89.4626,667.6606,0,480.0961,0,292.5079,0,125.824,89.4852,20.3921,228.0945a100.0717,100.0717,0,0,0,.0062,121.095c105.434,138.5794,272.0994,228.0421,459.6638,228.0421,187.5882,0,354.2721-89.4852,459.7041-228.0945A100.072,100.072,0,0,0,939.76,228.0421ZM831.49,329.1856C750.892,422.101,623.4693,482.0864,480.0662,482.0864c-143.3851,0-270.7937-59.97-351.3935-152.8657-20.79-23.9613-20.7915-57.2113-.0047-81.1747C209.2662,155.1306,336.6889,95.1452,480.0921,95.1452c143.385,0,270.7936,59.97,351.3934,152.8656C852.2754,271.9722,852.277,305.2222,831.49,329.1856Z"/><circle cx="480.0203" cy="288.6158" r="89.7059"/></svg>