<svg id="Layer_1_copy" data-name="Layer 1 copy" xmlns="http://www.w3.org/2000/svg" viewBox="0 0 960.1582 577.2316"><path d="M831.49,329.1856c-80.5982,92.9154-208.021,152.9008-351.424,152.9008-143.3851,0-270.7937-59.97-351.3935-152.8657a64.8349,64.8349,0,0,1-10.9967-17.6628,37.63,37.63,0,0,0-34.863-22.9421H50.2793c-30.9062,0-48.8358,35.315-30.2871,60.0362q.202.2692.4061.5375c105.434,138.5794,272.0994,228.0421,459.6638,228.0421,187.5882,0,354.2721-89.4852,459.7041-228.0945q.2038-.268.4056-.537c18.53-24.7018.6145-59.9843-30.2648-59.9843H877.3324a37.6364,37.6364,0,0,0-34.86,22.9368A64.8413,64.8413,0,0,1,831.49,329.1856Z"/></svg>