<?xml version="1.0" encoding="UTF-8" standalone="no" ?>
<!DOCTYPE svg PUBLIC "-//W3C//DTD SVG 1.1//EN" "http://www.w3.org/Graphics/SVG/1.1/DTD/svg11.dtd">
<svg xmlns="http://www.w3.org/2000/svg" xmlns:xlink="http://www.w3.org/1999/xlink" version="1.1" width="1080" height="1080" viewBox="0 0 1080 1080" xml:space="preserve">
<desc>Created with Fabric.js 5.2.4</desc>
<defs>
</defs>
<g transform="matrix(1 0 0 1 540 540)" id="3a3a8e3b-2660-4707-a385-2c51759a3687"  >
<rect style="stroke: none; stroke-width: 1; stroke-dasharray: none; stroke-linecap: butt; stroke-dashoffset: 0; stroke-linejoin: miter; stroke-miterlimit: 4; fill: rgb(255,255,255); fill-rule: nonzero; opacity: 1; visibility: hidden;" vector-effect="non-scaling-stroke"  x="-540" y="-540" rx="0" ry="0" width="1080" height="1080" />
</g>
<g transform="matrix(1 0 0 1 540 540)" id="01250504-4c24-4966-913f-b3f135b03717"  >
</g>
<g transform="matrix(NaN NaN NaN NaN 0 0)"  >
<g style=""   >
</g>
</g>
<g transform="matrix(0 2.51 2.53 0 540 540)" id="7e1ee903-6260-4125-b338-2a8f06cf5039"  >
<path style="stroke: rgb(0,0,0); stroke-width: 0; stroke-dasharray: none; stroke-linecap: butt; stroke-dashoffset: 0; stroke-linejoin: miter; stroke-miterlimit: 4; fill: rgb(0,0,0); fill-rule: nonzero; opacity: 1;" vector-effect="non-scaling-stroke"  transform=" translate(-190.09, -190.09)" d="M 287.844 97.751 C 287.844 43.851000000000006 243.992 0 190.09199999999998 0 C 136.19199999999998 0 92.34 43.851 92.34 97.751 C 92.34 145.87900000000002 127.302 185.99099999999999 173.162 194.031 L 173.162 353.711 C 173.162 368.308 182.999 380.183 195.092 380.183 C 207.18400000000003 380.183 217.02200000000002 368.308 217.02200000000002 353.711 L 217.02200000000002 346.004 L 242.29100000000003 346.004 C 250.562 346.004 257.29100000000005 339.27500000000003 257.29100000000005 331.004 L 257.29100000000005 310.137 C 257.29100000000005 301.866 250.56200000000004 295.137 242.29100000000005 295.137 L 217.02200000000005 295.137 L 217.02200000000005 191.729 C 257.868 180.007 287.844 142.315 287.844 97.751 z M 190.092 152.772 C 159.705 152.772 135.07100000000003 128.13799999999998 135.07100000000003 97.75099999999999 C 135.07100000000003 67.364 159.70500000000004 42.72999999999999 190.09200000000004 42.72999999999999 C 220.47900000000004 42.72999999999999 245.11300000000006 67.36399999999999 245.11300000000006 97.75099999999999 C 245.11300000000006 128.13799999999998 220.479 152.772 190.092 152.772 z" stroke-linecap="round" />
</g>
</svg>