<svg id="svg" xmlns="http://www.w3.org/2000/svg" xmlns:xlink="http://www.w3.org/1999/xlink" width="400" height="504.8" viewBox="0, 0, 400,504.8" version="1.1"><g id="svgg"><path id="path0" d="M198.800 48.818 C 195.461 49.149,187.298 49.945,183.000 50.358 C 181.460 50.506,178.130 51.286,175.600 52.091 C 173.070 52.896,169.200 54.095,167.000 54.756 C 159.077 57.135,157.394 57.677,157.000 57.978 C 156.517 58.347,152.173 60.715,147.800 62.993 C 138.755 67.705,136.545 69.135,130.267 74.340 C 126.710 77.288,122.843 80.443,121.673 81.350 C 117.865 84.305,104.531 101.040,101.714 106.400 C 100.385 108.930,98.850 111.810,98.305 112.800 C 95.341 118.175,92.800 123.249,92.800 123.793 C 92.800 124.133,92.637 124.723,92.438 125.105 C 91.970 126.002,89.600 133.709,89.600 134.334 C 89.600 134.596,89.435 135.123,89.234 135.505 C 88.715 136.489,87.200 141.691,87.200 142.488 C 87.200 142.853,87.047 143.247,86.861 143.362 C 86.674 143.478,86.309 145.513,86.049 147.886 C 85.789 150.259,85.410 153.640,85.207 155.400 C 85.003 157.160,84.649 160.240,84.418 162.245 C 84.163 164.470,84.000 177.665,84.000 196.106 L 84.000 226.321 77.100 226.544 C 69.808 226.781,67.107 227.030,65.800 227.586 C 65.360 227.773,64.100 228.152,63.000 228.429 C 52.429 231.091,41.399 241.783,37.861 252.800 C 35.630 259.744,35.800 251.598,35.800 351.800 C 35.800 446.207,35.811 446.934,37.264 448.580 C 37.449 448.789,37.600 449.405,37.600 449.950 C 37.600 454.952,48.214 468.471,54.600 471.603 C 55.260 471.927,56.610 472.650,57.600 473.211 C 58.590 473.772,60.120 474.447,61.000 474.712 C 66.751 476.442,68.132 476.767,71.000 477.066 C 75.089 477.493,333.122 477.507,337.400 477.081 C 344.935 476.330,352.953 472.981,358.400 468.307 C 363.781 463.691,370.400 454.384,370.400 451.433 C 370.400 451.079,370.562 450.477,370.761 450.095 C 371.258 449.138,371.858 446.698,372.370 443.554 C 372.668 441.719,372.794 413.513,372.779 351.554 C 372.757 258.633,372.789 260.605,371.207 255.000 C 370.958 254.120,370.613 252.860,370.439 252.200 C 370.153 251.115,369.698 250.192,366.982 245.197 C 366.532 244.370,365.632 243.066,364.982 242.299 C 364.332 241.533,363.301 240.256,362.690 239.462 C 361.111 237.408,356.372 233.646,353.257 231.974 C 347.419 228.842,347.329 228.800,346.429 228.800 C 345.999 228.800,345.549 228.641,345.429 228.446 C 344.925 227.631,338.802 226.803,331.359 226.544 L 324.917 226.320 324.625 196.660 C 324.465 180.347,324.164 165.110,323.958 162.800 C 323.751 160.490,323.409 156.890,323.197 154.800 C 322.986 152.710,322.703 149.740,322.569 148.200 C 322.435 146.660,322.006 144.410,321.616 143.200 C 321.226 141.990,320.679 140.190,320.400 139.200 C 320.121 138.210,319.581 136.410,319.200 135.200 C 318.819 133.990,318.277 132.190,317.997 131.200 C 316.202 124.870,310.957 112.965,308.706 110.111 C 308.493 109.841,307.451 107.910,306.390 105.819 C 304.489 102.076,303.393 100.494,300.169 96.846 C 299.272 95.831,298.262 94.591,297.925 94.091 C 297.588 93.592,296.657 92.475,295.856 91.609 C 295.055 90.743,294.400 89.919,294.400 89.777 C 294.400 88.975,288.566 82.865,285.447 80.400 C 284.194 79.410,282.206 77.790,281.028 76.800 C 279.851 75.810,277.670 74.010,276.181 72.800 C 274.692 71.590,272.827 70.052,272.037 69.382 C 271.247 68.712,268.980 67.371,267.000 66.403 C 265.020 65.434,262.926 64.320,262.346 63.927 C 260.653 62.777,248.733 56.800,248.135 56.800 C 247.835 56.800,247.277 56.642,246.895 56.449 C 245.739 55.865,243.396 55.200,242.495 55.200 C 242.029 55.200,241.536 55.020,241.400 54.800 C 241.264 54.580,240.801 54.400,240.371 54.400 C 239.941 54.400,239.277 54.242,238.895 54.049 C 238.229 53.713,237.628 53.527,233.600 52.408 C 232.610 52.134,231.440 51.770,231.000 51.600 C 229.290 50.940,226.891 50.428,224.400 50.191 C 222.970 50.055,220.090 49.786,218.000 49.594 C 203.698 48.279,204.079 48.295,198.800 48.818 M209.883 93.635 C 212.257 93.851,215.420 94.136,216.910 94.268 C 218.401 94.401,219.716 94.664,219.834 94.854 C 219.951 95.045,220.418 95.200,220.871 95.200 C 221.590 95.200,225.429 96.312,227.800 97.207 C 228.240 97.373,229.410 97.729,230.400 97.999 C 232.569 98.590,237.294 100.909,245.400 105.361 C 245.840 105.602,246.849 106.340,247.643 107.000 C 248.436 107.660,250.723 109.523,252.723 111.141 C 257.768 115.219,265.737 124.214,267.836 128.200 C 268.300 129.080,269.336 131.015,270.140 132.500 C 273.631 138.954,274.400 140.501,274.400 141.068 C 274.400 141.399,274.926 143.319,275.569 145.335 C 277.799 152.323,278.369 154.614,278.574 157.400 C 278.688 158.940,278.956 162.180,279.170 164.600 C 279.384 167.020,279.568 181.915,279.580 197.700 L 279.600 226.400 204.200 226.400 L 128.800 226.400 128.796 197.300 C 128.794 179.739,128.959 166.614,129.213 164.200 C 130.156 155.222,130.449 152.945,130.807 151.800 C 131.013 151.140,131.522 149.520,131.938 148.200 C 132.353 146.880,132.917 144.990,133.192 144.000 C 133.947 141.276,134.114 140.868,135.971 137.200 C 139.030 131.159,141.263 127.021,141.939 126.141 C 151.848 113.252,158.577 107.522,171.707 100.789 C 173.855 99.687,176.375 98.546,177.307 98.253 C 178.238 97.959,180.350 97.307,182.000 96.804 C 183.650 96.301,185.990 95.569,187.200 95.177 C 188.410 94.785,190.570 94.371,192.000 94.257 C 199.733 93.639,203.707 93.226,203.912 93.021 C 204.039 92.895,204.462 92.893,204.854 93.017 C 205.246 93.141,207.509 93.420,209.883 93.635 " stroke="none" fill="#c3cbd2" fill-rule="evenodd"></path></g></svg>