<?xml version="1.0" encoding="utf-8"?>
<!-- Generator: Adobe Illustrator 26.2.1, SVG Export Plug-In . SVG Version: 6.00 Build 0)  -->
<svg version="1.1"
	 id="svg2" xmlns:cc="http://creativecommons.org/ns#" xmlns:dc="http://purl.org/dc/elements/1.1/" xmlns:rdf="http://www.w3.org/1999/02/22-rdf-syntax-ns#" xmlns:svg="http://www.w3.org/2000/svg"
	 xmlns="http://www.w3.org/2000/svg" xmlns:xlink="http://www.w3.org/1999/xlink" x="0px" y="0px" viewBox="0 0 25 25"
	 style="enable-background:new 0 0 25 25;" xml:space="preserve">
<path d="M15.3,12.5L22.8,5c0.8-0.8,0.8-2,0-2.8c-0.7-0.8-2-0.8-2.8,0l-7.5,7.5L5,2.2c-0.8-0.8-2-0.8-2.8,0s-0.8,2,0,2.8l7.5,7.5
	L2.2,20c-0.8,0.7-0.8,2,0,2.8c0.7,0.8,2,0.8,2.8,0l7.5-7.5l7.5,7.5c0.8,0.8,2,0.8,2.8,0c0.8-0.7,0.8-2,0-2.8L15.3,12.5z"/>
</svg>
